<svg width="45" height="25" viewBox="0 0 45 25" fill="none" xmlns="http://www.w3.org/2000/svg">
<g opacity="0.69" clip-path="url(#clip0_1_5)">
<path fill-rule="evenodd" clip-rule="evenodd" d="M0.656868 0.83158C-0.220631 1.75203 -0.220631 3.24067 0.656868 4.15885L19.2509 23.6202C19.6607 24.0559 20.154 24.4027 20.7008 24.6398C21.2475 24.8768 21.8363 24.999 22.4312 24.999C23.0262 24.999 23.615 24.8768 24.1617 24.6398C24.7085 24.4027 25.2018 24.0559 25.6116 23.6202L44.3429 4.01794C44.7615 3.57306 44.9968 2.98392 45.001 2.37016C45.0051 1.75641 44.7779 1.16405 44.3654 0.713398C44.1617 0.490152 43.9147 0.311526 43.6399 0.188581C43.3651 0.0656364 43.0682 0.00099064 42.7676 -0.00135298C42.467 -0.00369659 42.1692 0.0563119 41.8925 0.174956C41.6158 0.293601 41.3662 0.468355 41.1591 0.688398L24.0209 18.6293C23.8159 18.8473 23.5692 19.0209 23.2957 19.1395C23.0223 19.2581 22.7277 19.3193 22.4301 19.3193C22.1325 19.3193 21.838 19.2581 21.5645 19.1395C21.291 19.0209 21.0443 18.8473 20.8394 18.6293L3.83612 0.83158C3.63137 0.613648 3.38484 0.440099 3.11155 0.321502C2.83826 0.202906 2.54394 0.141745 2.24649 0.141745C1.94905 0.141745 1.65472 0.202906 1.38144 0.321502C1.10815 0.440099 0.861618 0.613648 0.656868 0.83158Z" fill="#A9A9A9"/>
</g>
<defs>
<clipPath id="clip0_1_5">
<rect width="25" height="45" fill="white" transform="translate(45) rotate(90)"/>
</clipPath>
</defs>
</svg>
